<?xml version="1.0" encoding="UTF-8" standalone="no"?>
<!DOCTYPE svg PUBLIC "-//W3C//DTD SVG 1.1//EN" "http://www.w3.org/Graphics/SVG/1.1/DTD/svg11.dtd">
<svg width="100%" height="100%" viewBox="0 0 16 16" version="1.1" xmlns="http://www.w3.org/2000/svg" xmlns:xlink="http://www.w3.org/1999/xlink" xml:space="preserve" xmlns:serif="http://www.serif.com/" style="fill-rule:evenodd;clip-rule:evenodd;stroke-linejoin:round;stroke-miterlimit:2;">
    <g transform="matrix(1,0,0,1,1,0)">
        <path d="M9.127,6.727L4.907,9.368C4.65,8.975 4.5,8.505 4.5,8C4.5,6.619 5.619,5.5 7,5.5C7.843,5.5 8.608,5.812 9.127,6.727ZM11.304,5.454C10.433,3.985 8.832,3 7,3C4.239,3 2,5.239 2,8C2,8.976 2.28,9.887 2.763,10.656C2.052,11.09 1.238,11.586 0.32,12.145C0.116,11.873 0,11.539 0,11.188L0,4.77C0,4.205 0.3,3.682 0.789,3.397L6.145,0.273C6.636,-0.014 7.243,-0.016 7.736,0.267L13.201,3.399C13.438,3.535 13.631,3.727 13.769,3.952L11.304,5.454Z" style="fill:rgb(88,94,111);"/>
        <path d="M2.645,10.459C3.504,11.976 5.132,13 7,13C8.805,13 10.387,12.043 11.266,10.609L13.676,12.084C13.554,12.306 13.517,12.375 13.293,12.505L7.628,15.79C7.201,16.038 6.677,16.036 6.252,15.785L0.698,12.507C0.442,12.356 0.245,12.129 0.126,11.863C1.035,11.357 1.875,10.889 2.645,10.459ZM7,10.5C6.054,10.5 5.232,9.975 4.807,9.201L7,8L9.139,9.296C8.7,10.018 7.906,10.5 7,10.5Z" style="fill:rgb(88,94,111);fill-opacity:0.75;"/>
        <path d="M13.791,3.947C13.906,4.157 14,4.446 14,4.696L14,11.261C14,11.512 13.786,11.879 13.67,12.089L7,8L13.791,3.947Z" style="fill:rgb(88,94,111);fill-opacity:0.6;"/>
    </g>
</svg>
