<?xml version="1.0" encoding="UTF-8" standalone="no"?>
<!DOCTYPE svg PUBLIC "-//W3C//DTD SVG 1.1//EN" "http://www.w3.org/Graphics/SVG/1.1/DTD/svg11.dtd">
<svg width="100%" height="100%" viewBox="0 0 800 800" version="1.1" xmlns="http://www.w3.org/2000/svg" xmlns:xlink="http://www.w3.org/1999/xlink" xml:space="preserve" xmlns:serif="http://www.serif.com/" style="fill-rule:evenodd;clip-rule:evenodd;stroke-linejoin:round;stroke-miterlimit:2;">
    <g transform="matrix(8.23794,0,0,8.23794,29.1523,127.593)">
        <path d="M85.11,4.18C79.705,-1.226 70.867,-1.377 65.28,3.84C65.006,4.1 64.851,4.462 64.851,4.84C64.851,5.218 65.006,5.58 65.28,5.84L67,7.6C67.478,8.076 68.242,8.127 68.78,7.72C70.229,6.562 72.03,5.931 73.885,5.931C78.373,5.931 82.065,9.624 82.065,14.111C82.065,16.362 81.137,18.515 79.5,20.06C68.17,31.38 53.05,-0.36 18.73,16C17.121,16.773 16.093,18.407 16.093,20.192C16.093,21.017 16.313,21.828 16.73,22.54L22.62,32.71C23.881,34.903 26.716,35.682 28.92,34.44L29.06,34.36L28.95,34.44L31.53,33C34.439,31.194 37.189,29.143 39.75,26.87C40.271,26.395 41.069,26.369 41.62,26.81C41.923,27.064 42.099,27.441 42.099,27.837C42.099,28.205 41.947,28.557 41.68,28.81C38.985,31.238 36.08,33.423 33,35.34L32.91,35.34L30.3,36.8C29.198,37.419 27.954,37.743 26.69,37.74C24.028,37.75 21.556,36.332 20.22,34.03L14.65,24.42C4,32 -2.54,46.56 1,65C1.119,65.639 1.68,66.107 2.33,66.11L8.61,66.11C9.324,66.129 9.937,65.582 10,64.87C10.607,60.271 14.571,56.797 19.21,56.797C23.849,56.797 27.813,60.271 28.42,64.87C28.501,65.545 29.08,66.06 29.76,66.06L35.9,66.06C36.579,66.055 37.155,65.543 37.24,64.87C37.847,60.271 41.811,56.797 46.45,56.797C51.089,56.797 55.053,60.271 55.66,64.87C55.745,65.543 56.321,66.055 57,66.06L63.1,66.06C63.839,66.06 64.449,65.458 64.46,64.72C64.6,56.12 66.92,46.24 73.53,41.29C96.43,24.16 90.41,9.48 85.11,4.18ZM61.76,30.05L57.39,27.86C57.39,27.859 57.39,27.858 57.39,27.858C57.39,26.354 58.627,25.118 60.13,25.118C61.633,25.118 62.87,26.354 62.87,27.858C62.87,28.725 62.458,29.544 61.76,30.06L61.76,30.05Z" style="fill:rgb(2,48,58);fill-rule:nonzero;"/>
    </g>
</svg>
