<?xml version="1.0" encoding="UTF-8" standalone="no"?>
<!DOCTYPE svg PUBLIC "-//W3C//DTD SVG 1.1//EN" "http://www.w3.org/Graphics/SVG/1.1/DTD/svg11.dtd">
<svg width="100%" height="100%" viewBox="0 0 800 800" version="1.1" xmlns="http://www.w3.org/2000/svg" xmlns:xlink="http://www.w3.org/1999/xlink" xml:space="preserve" xmlns:serif="http://www.serif.com/" style="fill-rule:evenodd;clip-rule:evenodd;stroke-linejoin:round;stroke-miterlimit:2;">
    <g transform="matrix(62.0916,0,0,62.0916,-17579.4,-20746.9)">
        <path d="M293.987,341.982C293.987,342.392 293.935,342.787 293.831,343.168C293.728,343.549 293.58,343.906 293.389,344.238C293.198,344.57 292.968,344.872 292.701,345.146C292.433,345.419 292.135,345.655 291.807,345.852C291.479,346.049 291.125,346.201 290.746,346.309C290.368,346.416 289.971,346.47 289.557,346.47C289.127,346.47 288.72,346.411 288.335,346.294C287.951,346.177 287.595,346.013 287.269,345.802C286.943,345.591 286.648,345.339 286.384,345.046C286.12,344.753 285.897,344.433 285.713,344.085C285.53,343.738 285.388,343.367 285.288,342.972C285.189,342.577 285.139,342.173 285.139,341.759C285.139,341.404 285.172,341.051 285.239,340.701C285.305,340.352 285.398,340.008 285.517,339.67C285.636,339.332 285.777,339.002 285.939,338.68C286.101,338.358 286.276,338.05 286.463,337.757C286.541,337.636 286.622,337.515 286.706,337.394C286.79,337.273 286.877,337.156 286.967,337.042C286.971,337.038 286.975,337.035 286.979,337.034C286.983,337.032 286.987,337.029 286.991,337.025C287.026,337.029 287.057,337.082 287.084,337.186C287.112,337.289 287.14,337.409 287.169,337.543C287.199,337.678 287.23,337.81 287.263,337.939C287.296,338.068 287.336,338.158 287.383,338.208L287.407,338.197C287.5,338.079 287.583,337.955 287.656,337.825C287.728,337.694 287.803,337.564 287.881,337.435C288.057,337.134 288.232,336.834 288.406,336.535C288.579,336.237 288.754,335.935 288.93,335.63C289.008,335.497 289.082,335.362 289.153,335.223C289.223,335.084 289.303,334.952 289.393,334.827C289.424,334.781 289.46,334.744 289.501,334.719C289.542,334.694 289.592,334.681 289.651,334.681C289.694,334.681 289.755,334.704 289.835,334.751C289.915,334.798 290.002,334.859 290.096,334.933C290.19,335.007 290.287,335.089 290.389,335.179C290.491,335.269 290.587,335.358 290.679,335.446C290.771,335.534 290.853,335.614 290.925,335.686C290.997,335.758 291.053,335.812 291.092,335.847C291.502,336.261 291.884,336.701 292.238,337.168C292.591,337.635 292.897,338.125 293.155,338.639C293.412,339.153 293.616,339.689 293.764,340.247C293.912,340.806 293.987,341.384 293.987,341.982Z" style="fill:rgb(78,82,91);fill-rule:nonzero;"/>
        <path d="M292.721,343.042C292.721,343.472 292.635,343.87 292.463,344.238C292.291,344.605 292.06,344.922 291.769,345.19C291.478,345.457 291.142,345.667 290.761,345.82C290.38,345.972 289.981,346.048 289.563,346.048C289.121,346.048 288.708,345.965 288.324,345.799C287.939,345.633 287.604,345.407 287.319,345.119C287.034,344.832 286.81,344.495 286.648,344.109C286.486,343.722 286.405,343.308 286.405,342.867C286.405,342.468 286.469,342.076 286.598,341.689C286.727,341.302 286.898,340.932 287.111,340.578C287.324,340.225 287.567,339.891 287.84,339.576C288.114,339.262 288.393,338.978 288.678,338.724C288.815,338.599 288.955,338.48 289.1,338.367C289.244,338.253 289.395,338.148 289.551,338.05C289.727,338.163 289.896,338.284 290.058,338.413C290.22,338.542 290.379,338.677 290.536,338.818C290.836,339.091 291.119,339.386 291.385,339.702C291.651,340.019 291.882,340.355 292.079,340.71C292.277,341.066 292.433,341.439 292.548,341.829C292.663,342.22 292.721,342.624 292.721,343.042Z" style="fill:rgb(131,137,154);fill-rule:nonzero;"/>
    </g>
</svg>
