<?xml version="1.0" encoding="UTF-8" standalone="no"?>
<!DOCTYPE svg PUBLIC "-//W3C//DTD SVG 1.1//EN" "http://www.w3.org/Graphics/SVG/1.1/DTD/svg11.dtd">
<svg width="100%" height="100%" viewBox="0 0 800 800" version="1.1" xmlns="http://www.w3.org/2000/svg" xmlns:xlink="http://www.w3.org/1999/xlink" xml:space="preserve" xmlns:serif="http://www.serif.com/" style="fill-rule:evenodd;clip-rule:evenodd;stroke-linejoin:round;stroke-miterlimit:2;">
    <g transform="matrix(3.46837,0,0,3.46837,56.4056,57.3594)">
        <path id="polygon3282" d="M153.5,130.41L40.38,197.58L186.849,187.641L198.13,39.95L153.5,130.41Z" style="fill:rgb(243,102,98);"/>
        <path id="polygon3293" d="M187.089,187.54L174.5,100.65L140.209,145.93L187.089,187.54Z" style="fill:rgb(153,14,22);"/>
        <g id="polygon32931" serif:id="polygon3293" transform="matrix(1,0,0,1,17.5142,-42.7268)">
            <path d="M169.305,230.321L180.143,87.521L155.991,146.315L169.305,230.321Z" style="fill:rgb(236,22,34);"/>
        </g>
        <path id="polygon3304" d="M187.259,187.54L95.03,180.3L40.87,197.391L187.259,187.54Z" style="fill:rgb(153,14,22);"/>
        <path id="polygon3319" d="M41,197.41L64.04,121.93L13.34,132.771L41,197.41Z" style="fill:rgb(243,102,98);"/>
        <path id="polygon3334" d="M140.2,146.18L119,63.14L58.33,120.01L140.2,146.18Z" style="fill:rgb(236,22,34);"/>
        <path id="polygon3349" d="M193.32,64.31L135.97,17.47L120,69.1L193.32,64.31Z" style="fill:rgb(236,22,34);"/>
        <path id="polygon3362" d="M166.5,0.77L132.77,19.41L111.49,0.52L166.5,0.77Z" style="fill:rgb(243,102,98);"/>
        <path id="polygon3375" d="M0,158.09L14.13,132.32L2.7,101.62L0,158.09Z" style="fill:rgb(243,102,98);"/>
        <path id="path3377" d="M1.94,100.65L13.44,133.27L63.41,122.059L120.46,69.039L136.56,17.9L111.209,0L68.109,16.13C54.53,28.76 28.18,53.75 27.23,54.22C26.29,54.7 9.83,85.81 1.94,100.65Z" style="fill:white;"/>
        <path id="path3400" d="M42.32,42.05C71.75,12.87 109.69,-4.37 124.25,10.32C138.801,25.01 123.37,60.71 93.94,89.88C64.51,119.05 27.04,137.24 12.49,122.55C-2.07,107.87 12.89,71.22 42.32,42.05Z" style="fill:rgb(236,22,34);"/>
        <path id="path3413" d="M41,197.38L63.86,121.66L139.78,146.05C112.33,171.79 81.8,193.55 41,197.38Z" style="fill:rgb(153,14,22);"/>
        <path id="path3424" d="M120.56,68.89L140.05,146.09C162.98,121.98 183.56,96.06 193.639,64L120.56,68.89Z" style="fill:rgb(147,15,23);"/>
        <path id="path3435" d="M193.44,64.39C201.24,40.85 203.04,7.08 166.259,0.81L136.079,17.48L193.44,64.39Z" style="fill:rgb(147,15,23);"/>
        <path id="path3437" d="M0,157.75C1.08,196.601 29.11,197.18 41.05,197.521L13.47,133.11L0,157.75Z" style="fill:rgb(147,15,23);"/>
        <path id="path3448" d="M120.669,69.01C138.289,79.84 173.8,101.59 174.52,101.99C175.639,102.62 189.83,78.06 193.05,64.18L120.669,69.01Z" style="fill:rgb(153,14,22);"/>
        <path id="path3459" d="M63.83,121.66L94.39,180.62C112.46,170.82 126.61,158.88 139.57,146.09L63.83,121.66Z" style="fill:rgb(147,15,23);"/>
        <path id="path3472" d="M13.35,133.19L9.02,184.75C17.19,195.91 28.43,196.88 40.22,196.01C31.69,174.78 14.65,132.33 13.35,133.19Z" style="fill:rgb(153,14,22);"/>
        <path id="path3485" d="M135.9,17.61L196.61,26.13C193.37,12.4 183.42,3.54 166.46,0.77L135.9,17.61Z" style="fill:rgb(153,14,22);"/>
    </g>
</svg>
