<?xml version="1.0" encoding="UTF-8" standalone="no"?>
<!DOCTYPE svg PUBLIC "-//W3C//DTD SVG 1.1//EN" "http://www.w3.org/Graphics/SVG/1.1/DTD/svg11.dtd">
<svg width="100%" height="100%" viewBox="0 0 800 800" version="1.1" xmlns="http://www.w3.org/2000/svg" xmlns:xlink="http://www.w3.org/1999/xlink" xml:space="preserve" xmlns:serif="http://www.serif.com/" style="fill-rule:evenodd;clip-rule:evenodd;stroke-linejoin:round;stroke-miterlimit:2;">
    <g transform="matrix(1.13219,0,0,1.13219,-62.9884,-40.9971)">
        <path d="M80.219,376.378L100.853,363.17L101.746,354.999L75.707,330.5C71.647,320.001 78.087,317.201 78.087,317.201L111.825,303.762L114.345,295.362L93.906,267.224C90.966,256.724 99.786,253.364 99.786,253.364L134.224,248.185L138.144,240.345L123.304,207.167C122.464,196.107 132.124,195.967 132.124,195.967L167.262,197.507L172.862,189.808L165.022,156.63C164.742,143.61 175.382,145.71 175.382,145.71L209.26,153.69L215.979,148.09L214.999,112.812C217.379,101.613 228.719,104.832 228.719,104.832L258.817,119.112L266.797,115.192L273.376,79.774C276.316,70.954 286.396,74.734 286.396,74.734L314.418,95.658L323.238,93.139L335.557,59.26C342.837,50.861 349.556,56.321 349.556,56.321L373.635,82.499L382.32,82.232L401.359,51.153C404.314,48.753 406.854,47.957 408.93,47.97C411.007,47.957 413.546,48.753 416.501,51.153L435.54,82.232L444.226,82.499L468.305,56.321C468.305,56.321 475.024,50.861 482.304,59.26L494.623,93.139L503.443,95.658L531.465,74.734C531.465,74.734 541.545,70.954 544.484,79.774L551.064,115.192L559.044,119.112L589.142,104.832C589.142,104.832 600.481,101.613 602.861,112.812L601.881,148.09L608.601,153.69L642.479,145.71C642.479,145.71 653.119,143.61 652.839,156.63L644.999,189.808L650.599,197.507L685.737,195.967C685.737,195.967 695.396,196.107 694.556,207.167L679.717,240.345L683.637,248.185L718.075,253.364C718.075,253.364 726.894,256.724 723.955,267.224L703.516,295.362L706.036,303.762L739.774,317.201C739.774,317.201 746.213,320.001 742.154,330.5L716.115,354.999L717.007,363.17L737.641,376.378L747.358,382.358C747.943,383.057 748.432,383.735 748.837,384.393C749.735,385.641 750.547,387.37 750.498,389.507C750.547,391.643 749.735,393.372 748.837,394.62C748.432,395.278 747.943,395.957 747.358,396.656L737.641,402.635L717.007,415.844L716.115,424.015L742.154,448.513C746.213,459.013 739.774,461.813 739.774,461.813L706.036,475.252L703.516,483.651L723.955,511.79C726.894,522.289 718.075,525.649 718.075,525.649L683.637,530.829L679.717,538.668L694.556,571.847C695.396,582.906 685.737,583.046 685.737,583.046L650.599,581.506L644.999,589.206L652.839,622.384C653.119,635.403 642.479,633.303 642.479,633.303L608.601,625.324L601.881,630.923L602.861,666.201C600.481,677.401 589.142,674.181 589.142,674.181L559.044,659.902L551.064,663.822L544.484,699.24C541.545,708.059 531.465,704.279 531.465,704.279L503.443,683.355L494.623,685.875L482.304,719.753C475.024,728.152 468.305,722.693 468.305,722.693L444.226,696.514L435.54,696.782L416.501,727.86C413.546,730.261 411.007,731.056 408.93,731.043C406.854,731.056 404.314,730.261 401.359,727.86L382.32,696.782L373.635,696.514L349.556,722.693C349.556,722.693 342.837,728.152 335.557,719.753L323.238,685.875L314.418,683.355L286.396,704.279C286.396,704.279 276.316,708.059 273.376,699.24L266.797,663.822L258.817,659.902L228.719,674.181C228.719,674.181 217.379,677.401 214.999,666.201L215.979,630.923L209.26,625.324L175.382,633.303C175.382,633.303 164.742,635.403 165.022,622.384L172.862,589.206L167.262,581.506L132.124,583.046C132.124,583.046 122.464,582.906 123.304,571.847L138.144,538.668L134.224,530.829L99.786,525.649C99.786,525.649 90.966,522.289 93.906,511.79L114.345,483.651L111.825,475.252L78.087,461.813C78.087,461.813 71.647,459.013 75.707,448.513L101.746,424.015L100.853,415.844L80.219,402.635L70.503,396.656C69.918,395.957 69.429,395.278 69.023,394.62C68.126,393.372 67.314,391.643 67.362,389.507C67.314,387.37 68.125,385.641 69.023,384.393C69.429,383.735 69.918,383.057 70.503,382.358L80.219,376.378ZM585.152,561.625C593.782,553.613 602.362,544.899 610.886,535.437C611.032,535.274 611.178,535.111 611.325,534.946L610.359,535.176L502.904,534.355C502.904,534.355 466.111,536.081 455.858,440.384C455.858,440.384 445.774,412.453 419.35,411.753L352.504,411.403L353.204,457.95L416.025,459L416.025,534.946L207.81,535.119C214.621,544.011 222.369,552.73 231.173,561.117L273.497,551.712C273.497,551.712 286.189,550.219 293.282,563.471L304.101,612.156C364.864,641.871 438.411,649.723 512.994,612.526L523.409,563.979C523.409,563.979 527.112,552.033 545.987,553.347L585.152,561.625ZM556.833,576.856C568.901,576.856 578.699,587.072 578.699,599.656C578.699,612.24 568.901,622.456 556.833,622.456C544.765,622.456 534.967,612.24 534.967,599.656C534.967,587.072 544.765,576.856 556.833,576.856ZM257.268,577.135C268.872,577.135 278.293,586.556 278.293,598.16C278.293,609.764 268.872,619.185 257.268,619.185C245.664,619.185 236.243,609.764 236.243,598.16C236.243,586.556 245.664,577.135 257.268,577.135ZM456.213,139.306L456.224,139.432L419.914,174.867C419.914,174.867 408.32,185.804 393.884,175.086L362.528,141.066L362.196,141.69C362.196,141.69 276.335,156.156 222.904,221.019L222.818,221.124L491.817,221.546C491.817,221.546 658.241,264.375 528.473,376.521C528.473,376.521 569.23,399.121 568.888,444.92C568.888,444.92 607.851,477.73 627.332,433.983L628.015,408.691C628.015,408.691 626.801,404.017 655.759,406.366C656.476,399.581 656.99,393.297 657.358,387.717L657.559,362.39C657.559,362.39 621.082,347.244 609.051,340.955C597.021,334.667 600.849,321.816 600.849,321.816L625.448,265.109C585.344,200.967 520.674,151.809 456.213,139.306ZM168.8,455.88L168.911,455.933L240.289,455.634L240.195,296.472L204.749,295.968L215.027,319.843C215.027,319.843 217.827,327.543 207.095,339.209L160.632,361.194C159.769,367.967 155.545,407.957 168.8,455.88ZM352.639,296.836L352.639,344.974L437.588,345.54C437.588,345.54 462.789,345.257 467.603,324.02C467.603,324.02 468.453,298.252 437.021,297.402C405.59,296.553 352.639,296.836 352.639,296.836ZM650.415,291.064C663.132,291.064 673.457,301.389 673.457,314.107C673.457,326.824 663.132,337.149 650.415,337.149C637.697,337.149 627.373,326.824 627.373,314.107C627.373,301.389 637.697,291.064 650.415,291.064ZM166.522,290.294C178.884,290.294 188.92,300.33 188.92,312.692C188.92,325.055 178.884,335.091 166.522,335.091C154.159,335.091 144.123,325.055 144.123,312.692C144.123,300.33 154.159,290.294 166.522,290.294ZM406.82,106.813C419.01,106.813 428.907,116.71 428.907,128.9C428.907,141.09 419.01,150.987 406.82,150.987C394.63,150.987 384.733,141.09 384.733,128.9C384.733,116.71 394.63,106.813 406.82,106.813Z" style="fill:rgb(88,94,111);"/>
    </g>
</svg>
